<?xml version="1.0"?>
<svg xmlns="http://www.w3.org/2000/svg" xmlns:xlink="http://www.w3.org/1999/xlink" xmlns:svgjs="http://svgjs.com/svgjs" version="1.1" width="512" height="512" x="0" y="0" viewBox="0 0 512 512" style="enable-background:new 0 0 512 512" xml:space="preserve" class=""><g transform="matrix(1,0,0,1,0,0)">
<g xmlns="http://www.w3.org/2000/svg">
	<polygon style="" points="484.973,122.808 452.288,451.017 59.712,451.017 33.379,129.16 256,253.802  " fill="#ffffff" data-original="#f2f2f2" class=""/>
	<polygon style="" points="473.886,60.983 256,265.659 38.114,60.983 256,60.983  " fill="#ffffff" data-original="#f2f2f2" class=""/>
</g>
<path xmlns="http://www.w3.org/2000/svg" style="" d="M59.712,155.493v295.524H24.139C10.812,451.017,0,440.206,0,426.878V111.967l39,1.063L59.712,155.493  z" fill="#000000" data-original="#f14336" class=""/>
<path xmlns="http://www.w3.org/2000/svg" style="" d="M512,111.967v314.912c0,13.327-10.812,24.139-24.152,24.139h-35.56V155.493l19.692-46.525  L512,111.967z" fill="#000000" data-original="#d32e2a" class=""/>
<path xmlns="http://www.w3.org/2000/svg" style="" d="M512,85.122v26.845l-59.712,43.526L256,298.561L59.712,155.493L0,111.967V85.122  c0-13.327,10.812-24.139,24.139-24.139h13.975L256,219.792L473.886,60.983h13.962C501.188,60.983,512,71.794,512,85.122z" fill="#000000" data-original="#f14336" class=""/>
<polygon xmlns="http://www.w3.org/2000/svg" style="" points="59.712,155.493 0,146.235 0,111.967 " fill="#000000" data-original="#d32e2a" class=""/>
<g xmlns="http://www.w3.org/2000/svg">
</g>
<g xmlns="http://www.w3.org/2000/svg">
</g>
<g xmlns="http://www.w3.org/2000/svg">
</g>
<g xmlns="http://www.w3.org/2000/svg">
</g>
<g xmlns="http://www.w3.org/2000/svg">
</g>
<g xmlns="http://www.w3.org/2000/svg">
</g>
<g xmlns="http://www.w3.org/2000/svg">
</g>
<g xmlns="http://www.w3.org/2000/svg">
</g>
<g xmlns="http://www.w3.org/2000/svg">
</g>
<g xmlns="http://www.w3.org/2000/svg">
</g>
<g xmlns="http://www.w3.org/2000/svg">
</g>
<g xmlns="http://www.w3.org/2000/svg">
</g>
<g xmlns="http://www.w3.org/2000/svg">
</g>
<g xmlns="http://www.w3.org/2000/svg">
</g>
<g xmlns="http://www.w3.org/2000/svg">
</g>
</g></svg>
